# 3ds Max Wavefront OBJ Exporter v0.97b - (c)2007 guruware
# File Created: 07.10.2013 03:07:29

mtllib arm1.mtl

#
# object block
#

v  -0.0863 -0.2309 -0.1808
v  -0.0863 -0.2966 -0.1970
v  -0.0810 -0.2966 -0.1970
v  -0.0810 -0.2309 -0.1808
v  -0.0810 0.5940 -0.5211
v  -0.0863 0.5940 -0.5211
v  -0.0863 0.5570 -0.4675
v  -0.0810 0.5570 -0.4675
v  -0.0863 -0.3095 -0.2324
v  -0.0810 -0.3095 -0.2324
v  -0.0810 0.5811 -0.5565
v  -0.0863 0.5811 -0.5565
v  -0.0863 -0.2695 -0.2870
v  -0.0810 -0.2695 -0.2870
v  -0.0863 0.5183 -0.5738
v  -0.0810 0.5183 -0.5738
v  -0.0917 -0.2309 -0.1808
v  -0.0917 -0.2966 -0.1970
v  -0.0917 0.5940 -0.5211
v  -0.0917 0.5570 -0.4675
v  -0.0917 -0.3095 -0.2324
v  -0.0917 0.5811 -0.5565
v  -0.0917 -0.2695 -0.2870
v  -0.0917 0.5183 -0.5738
v  -0.0971 -0.2309 -0.1808
v  -0.0971 -0.2966 -0.1970
v  -0.0971 0.5940 -0.5211
v  -0.0971 0.5570 -0.4675
v  -0.0971 -0.3095 -0.2324
v  -0.0971 0.5811 -0.5565
v  -0.0971 -0.2695 -0.2870
v  -0.0971 0.5183 -0.5738
v  -0.0810 0.3100 -0.3777
v  -0.0810 0.2971 -0.4131
v  -0.0971 0.2971 -0.4131
v  -0.0971 0.3100 -0.3777
v  -0.0810 0.2842 -0.4485
v  -0.0971 0.2842 -0.4485
v  -0.0810 0.2714 -0.4839
v  -0.0971 0.2714 -0.4839
v  -0.0810 0.0132 -0.2696
v  -0.0810 0.0003 -0.3050
v  -0.0971 0.0003 -0.3050
v  -0.0971 0.0132 -0.2696
v  -0.0810 -0.0126 -0.3404
v  -0.0971 -0.0126 -0.3404
v  -0.0810 -0.0255 -0.3758
v  -0.0971 -0.0255 -0.3758
v  -0.0863 0.3100 -0.3777
v  -0.0863 0.2714 -0.4839
v  -0.0863 0.0132 -0.2696
v  -0.0863 -0.0255 -0.3758
v  -0.0917 0.3100 -0.3777
v  -0.0917 0.2714 -0.4839
v  -0.0917 0.0132 -0.2696
v  -0.0917 -0.0255 -0.3758
# 56 vertices

vn 0.0000 -0.2391 0.9710
vn 0.0000 -0.6681 0.7441
vn 0.0000 0.9919 0.1274
vn 0.0000 0.8228 0.5684
vn 0.8490 0.4347 0.3003
vn 0.0000 -0.9901 -0.1406
vn 0.0000 0.6779 -0.7351
vn 0.0000 -0.8073 -0.5901
vn 0.8515 -0.4233 -0.3094
vn 0.0000 0.2650 -0.9643
vn -0.8490 0.4347 0.3003
vn -0.8515 -0.4233 -0.3094
vn 1.0000 0.0000 -0.0000
vn -1.0000 0.0000 -0.0000
vn 0.0000 0.3420 0.9397
vn 0.0000 -0.3420 -0.9397
# 16 vertex normals

g block
usemtl ac3dmat5
s 1
f 1//1 2//2 3//2 4//1 
f 5//3 6//3 7//4 8//5 
f 9//6 10//6 3//2 2//2 
f 11//7 12//7 6//3 5//3 
f 13//8 14//9 10//6 9//6 
f 15//10 12//7 11//7 16//10 
f 17//1 18//2 2//2 1//1 
f 6//3 19//3 20//4 7//4 
f 21//6 9//6 2//2 18//2 
f 12//7 22//7 19//3 6//3 
f 23//8 13//8 9//6 21//6 
f 24//10 22//7 12//7 15//10 
f 25//1 26//2 18//2 17//1 
f 19//3 27//3 28//11 20//4 
f 29//6 21//6 18//2 26//2 
f 22//7 30//7 27//3 19//3 
f 31//12 23//8 21//6 29//6 
f 32//10 30//7 22//7 24//10 
f 33//13 34//13 5//13 8//5 
f 27//14 35//14 36//14 28//11 
f 34//13 37//13 11//13 5//13 
f 30//14 38//14 35//14 27//14 
f 37//13 39//13 16//13 11//13 
f 32//14 40//14 38//14 30//14 
f 41//13 42//13 34//13 33//13 
f 35//14 43//14 44//14 36//14 
f 42//13 45//13 37//13 34//13 
f 38//14 46//14 43//14 35//14 
f 45//13 47//13 39//13 37//13 
f 40//14 48//14 46//14 38//14 
f 4//13 3//13 42//13 41//13 
f 43//14 26//14 25//14 44//14 
f 3//13 10//13 45//13 42//13 
f 46//14 29//14 26//14 43//14 
f 45//13 10//13 14//9 47//13 
f 31//12 29//14 46//14 48//14 
f 7//15 49//15 33//15 8//15 
f 50//16 15//16 16//16 39//16 
f 49//15 51//15 41//15 33//15 
f 52//16 50//16 39//16 47//16 
f 51//15 1//15 4//15 41//15 
f 13//16 52//16 47//16 14//16 
f 20//15 53//15 49//15 7//15 
f 54//16 24//16 15//16 50//16 
f 53//15 55//15 51//15 49//15 
f 56//16 54//16 50//16 52//16 
f 55//15 17//15 1//15 51//15 
f 23//16 56//16 52//16 13//16 
f 28//15 36//15 53//15 20//15 
f 40//16 32//16 24//16 54//16 
f 36//15 44//15 55//15 53//15 
f 48//16 40//16 54//16 56//16 
f 44//15 25//15 17//15 55//15 
f 31//16 48//16 56//16 23//16 
# 54 polygons

#
# object block00000
#

v  0.2008 -0.2692 -0.2862
v  0.2008 -0.0252 -0.3750
v  0.2061 -0.0252 -0.3750
v  0.2061 -0.2692 -0.2862
v  0.2008 0.0135 -0.2688
v  0.2008 -0.2306 -0.1800
v  0.2061 -0.2306 -0.1800
v  0.2061 0.0135 -0.2688
v  0.2008 0.2717 -0.4830
v  0.2061 0.2717 -0.4830
v  0.2008 0.3103 -0.3768
v  0.2061 0.3103 -0.3768
v  0.2008 0.5186 -0.5729
v  0.2061 0.5186 -0.5729
v  0.2008 0.5573 -0.4667
v  0.2061 0.5573 -0.4667
v  0.2115 -0.0252 -0.3750
v  0.2115 -0.2692 -0.2862
v  0.2115 -0.2306 -0.1800
v  0.2115 0.0135 -0.2688
v  0.2115 0.2717 -0.4830
v  0.2115 0.3103 -0.3768
v  0.2115 0.5186 -0.5729
v  0.2115 0.5573 -0.4667
v  0.2168 -0.0252 -0.3750
v  0.2168 -0.2692 -0.2862
v  0.2168 -0.2306 -0.1800
v  0.2168 0.0135 -0.2688
v  0.2168 0.2717 -0.4830
v  0.2168 0.3103 -0.3768
v  0.2168 0.5186 -0.5729
v  0.2168 0.5573 -0.4667
v  0.2008 -0.3091 -0.2315
v  0.2008 -0.0123 -0.3396
v  0.2168 -0.0123 -0.3396
v  0.2168 -0.3091 -0.2315
v  0.2008 -0.2963 -0.1961
v  0.2008 0.0006 -0.3042
v  0.2168 -0.2963 -0.1961
v  0.2168 0.0006 -0.3042
v  0.2008 0.2846 -0.4476
v  0.2168 0.2846 -0.4476
v  0.2008 0.2974 -0.4122
v  0.2168 0.2974 -0.4122
v  0.2008 0.5814 -0.5557
v  0.2168 0.5814 -0.5557
v  0.2008 0.5943 -0.5203
v  0.2168 0.5943 -0.5203
v  0.2061 0.5814 -0.5557
v  0.2061 -0.3091 -0.2315
v  0.2061 0.5943 -0.5203
v  0.2061 -0.2963 -0.1961
v  0.2115 0.5814 -0.5557
v  0.2115 -0.3091 -0.2315
v  0.2115 0.5943 -0.5203
v  0.2115 -0.2963 -0.1961
# 56 vertices

vn 0.0000 -0.3420 -0.9397
vn 0.0000 0.3420 0.9397
vn -0.8515 -0.4233 -0.3094
vn -1.0000 0.0000 -0.0000
vn 1.0000 0.0000 -0.0000
vn 0.8515 -0.4233 -0.3094
vn -0.8490 0.4347 0.3003
vn 0.8490 0.4347 0.3003
vn 0.0000 0.2650 -0.9643
vn 0.0000 0.6779 -0.7351
vn 0.0000 -0.8073 -0.5901
vn 0.0000 -0.9901 -0.1406
vn 0.0000 0.9919 0.1274
vn 0.0000 -0.6681 0.7441
vn 0.0000 0.8228 0.5684
vn 0.0000 -0.2391 0.9710
# 16 vertex normals

g block00000
usemtl ac3dmat5
s 1
f 57//17 58//17 59//17 60//17 
f 61//18 62//18 63//18 64//18 
f 58//17 65//17 66//17 59//17 
f 67//18 61//18 64//18 68//18 
f 65//17 69//17 70//17 66//17 
f 71//18 67//18 68//18 72//18 
f 60//17 59//17 73//17 74//17 
f 64//18 63//18 75//18 76//18 
f 59//17 66//17 77//17 73//17 
f 68//18 64//18 76//18 78//18 
f 66//17 70//17 79//17 77//17 
f 72//18 68//18 78//18 80//18 
f 74//17 73//17 81//17 82//17 
f 76//18 75//18 83//18 84//18 
f 73//17 77//17 85//17 81//17 
f 78//18 76//18 84//18 86//18 
f 77//17 79//17 87//17 85//17 
f 80//18 78//18 86//18 88//18 
f 57//19 89//20 90//20 58//20 
f 91//21 92//21 82//22 81//21 
f 90//20 89//20 93//20 94//20 
f 95//21 92//21 91//21 96//21 
f 94//20 93//20 62//20 61//20 
f 83//21 95//21 96//21 84//21 
f 65//20 58//20 90//20 97//20 
f 91//21 81//21 85//21 98//21 
f 97//20 90//20 94//20 99//20 
f 96//21 91//21 98//21 100//21 
f 99//20 94//20 61//20 67//20 
f 84//21 96//21 100//21 86//21 
f 69//20 65//20 97//20 101//20 
f 98//21 85//21 87//21 102//21 
f 101//20 97//20 99//20 103//20 
f 100//21 98//21 102//21 104//21 
f 103//20 99//20 67//20 71//23 
f 86//21 100//21 104//21 88//24 
f 69//25 101//26 105//26 70//25 
f 57//19 60//27 106//28 89//28 
f 105//26 101//26 103//29 107//29 
f 89//28 106//28 108//30 93//30 
f 107//29 103//29 71//23 72//31 
f 62//32 93//30 108//30 63//32 
f 70//25 105//26 109//26 79//25 
f 60//27 74//27 110//28 106//28 
f 109//26 105//26 107//29 111//29 
f 106//28 110//28 112//30 108//30 
f 111//29 107//29 72//31 80//31 
f 63//32 108//30 112//30 75//32 
f 79//25 109//26 102//26 87//25 
f 74//27 82//22 92//28 110//28 
f 102//26 109//26 111//29 104//29 
f 110//28 92//28 95//30 112//30 
f 104//29 111//29 80//31 88//24 
f 75//32 112//30 95//30 83//32 
# 54 polygons

#
# object box
#

v  0.2005 0.1178 -0.3993
v  0.2005 0.1106 -0.4190
v  0.2005 0.1333 -0.4273
v  0.2005 0.1405 -0.4076
v  -0.0814 0.1333 -0.4273
v  -0.0814 0.1106 -0.4190
v  -0.0814 0.1178 -0.3993
v  -0.0814 0.1405 -0.4076
# 8 vertices

vn 1.0000 0.0000 -0.0000
vn 0.7071 0.6645 -0.2418
vn -0.7071 0.6645 -0.2418
vn -1.0000 0.0000 -0.0000
vn 0.0000 -0.3420 -0.9397
vn 0.0000 -0.9063 -0.4226
vn 0.0000 0.3420 0.9397
vn 0.0000 -0.4226 0.9063
vn 0.0000 0.9397 -0.3420
vn 0.0000 -0.9397 0.3420
# 10 vertex normals

g box
usemtl ac3dmat12
s 1
f 113//33 114//33 115//34 116//33 
f 117//35 118//36 119//36 120//36 
f 118//37 117//37 115//37 114//38 
f 120//39 119//39 113//40 116//39 
f 115//34 117//35 120//41 116//41 
f 118//42 114//38 113//40 119//42 
# 6 polygons

#
# object box0000000
#

v  -0.0814 0.1379 -0.3440
v  0.2005 0.1379 -0.3440
v  0.2005 0.1450 -0.3243
v  -0.0814 0.1450 -0.3243
v  0.2005 0.1606 -0.3523
v  -0.0814 0.1606 -0.3523
v  -0.0814 0.1678 -0.3326
v  0.2005 0.1678 -0.3326
# 8 vertices

vn 0.0000 -0.9397 0.3420
vn 0.0000 -0.9063 -0.4226
vn 0.0000 -0.4226 0.9063
vn 0.7071 0.6645 -0.2419
vn -0.7071 0.6645 -0.2419
vn 0.0000 0.9397 -0.3420
vn 0.0000 0.3420 0.9397
vn 0.0000 -0.3420 -0.9397
vn -1.0000 0.0000 -0.0000
vn 1.0000 0.0000 -0.0000
# 10 vertex normals

g box0000000
usemtl ac3dmat12
s 1
f 121//43 122//44 123//45 124//43 
f 125//46 126//47 127//48 128//48 
f 127//49 124//49 123//45 128//49 
f 121//50 126//50 125//50 122//44 
f 126//47 121//51 124//51 127//51 
f 123//52 122//52 125//46 128//52 
# 6 polygons

#
# object cylinder01
#

v  -0.1032 0.1253 -0.4128
v  -0.1032 0.1236 -0.4032
v  -0.1032 0.1286 -0.4036
v  -0.1032 0.1328 -0.4065
v  -0.1032 0.1161 -0.4095
v  -0.1032 0.1190 -0.4053
v  -0.1032 0.1178 -0.4191
v  -0.1032 0.1156 -0.4145
v  -0.1032 0.1270 -0.4225
v  -0.1032 0.1219 -0.4220
v  -0.1032 0.1345 -0.4162
v  -0.1032 0.1316 -0.4203
v  -0.1032 0.1349 -0.4111
v  -0.0571 0.1253 -0.4128
v  -0.0571 0.1349 -0.4111
v  -0.0571 0.1328 -0.4065
v  -0.0571 0.1286 -0.4036
v  -0.0571 0.1236 -0.4032
v  -0.0571 0.1190 -0.4053
v  -0.0571 0.1161 -0.4095
v  -0.0571 0.1156 -0.4145
v  -0.0571 0.1178 -0.4191
v  -0.0571 0.1219 -0.4220
v  -0.0571 0.1270 -0.4225
v  -0.0571 0.1316 -0.4203
v  -0.0571 0.1345 -0.4162
# 26 vertices

vn -1.0000 0.0000 -0.0000
vn -0.8575 0.2951 0.4215
vn 1.0000 0.0000 -0.0000
vn 0.0000 0.3420 0.9397
vn 0.0000 0.5736 0.8192
vn 0.0000 -0.1737 0.9848
vn 0.0000 -0.6428 0.7661
vn 0.0000 -0.9397 0.3420
vn 0.0000 -0.9848 -0.1736
vn 0.0000 -0.7660 -0.6428
vn 0.0000 -0.3420 -0.9397
vn 0.0000 0.1736 -0.9848
vn 0.0000 0.6428 -0.7661
vn 0.0000 0.9397 -0.3420
vn 0.0000 0.9848 0.1736
vn 0.0000 0.9063 0.4226
# 16 vertex normals

g cylinder01
usemtl ac3dmat2
s 1
f 129//53 130//53 131//53 132//54 
f 129//53 133//53 134//53 130//53 
f 129//53 135//53 136//53 133//53 
f 129//53 137//53 138//53 135//53 
f 129//53 139//53 140//53 137//53 
f 129//53 132//54 141//53 139//53 
f 142//55 143//55 144//55 145//55 
f 142//55 145//55 146//55 147//55 
f 142//55 147//55 148//55 149//55 
f 142//55 149//55 150//55 151//55 
f 142//55 151//55 152//55 153//55 
f 142//55 153//55 154//55 143//55 
f 132//54 131//56 145//56 144//57 
f 131//56 130//58 146//58 145//56 
f 130//58 134//59 147//59 146//58 
f 133//60 148//60 147//59 134//59 
f 136//61 149//61 148//60 133//60 
f 135//62 150//62 149//61 136//61 
f 135//62 138//63 151//63 150//62 
f 138//63 137//64 152//64 151//63 
f 137//64 140//65 153//65 152//64 
f 153//65 140//65 139//66 154//66 
f 154//66 139//66 141//67 143//67 
f 143//67 141//67 132//68 144//68 
# 24 polygons

#
# object cylinder02
#

v  0.2219 0.1341 -0.4108
v  0.1758 0.1341 -0.4108
v  0.1758 0.1319 -0.4062
v  0.2219 0.1319 -0.4062
v  0.2219 0.1336 -0.4159
v  0.1758 0.1336 -0.4159
v  0.2219 0.1307 -0.4200
v  0.1758 0.1307 -0.4200
v  0.1758 0.1261 -0.4222
v  0.2219 0.1261 -0.4222
v  0.1758 0.1211 -0.4217
v  0.2219 0.1211 -0.4217
v  0.1758 0.1169 -0.4188
v  0.2219 0.1169 -0.4188
v  0.2219 0.1148 -0.4142
v  0.1758 0.1148 -0.4142
v  0.2219 0.1152 -0.4092
v  0.1758 0.1152 -0.4092
v  0.2219 0.1181 -0.4050
v  0.1758 0.1181 -0.4050
v  0.1758 0.1227 -0.4029
v  0.2219 0.1227 -0.4029
v  0.1758 0.1278 -0.4033
v  0.2219 0.1278 -0.4033
v  0.2219 0.1244 -0.4125
v  0.1758 0.1244 -0.4125
# 26 vertices

vn 0.0000 0.9848 0.1737
vn 0.0000 0.9062 0.4227
vn 0.0000 0.9397 -0.3420
vn 0.0000 0.6428 -0.7660
vn 0.0000 0.1736 -0.9848
vn 0.0000 -0.3420 -0.9397
vn 0.0000 -0.7660 -0.6428
vn 0.0000 -0.9848 -0.1736
vn 0.0000 -0.9397 0.3420
vn 0.0000 -0.6428 0.7661
vn 0.0000 -0.1736 0.9848
vn 0.0000 0.3420 0.9397
vn -0.8575 0.2951 0.4214
vn 0.0000 0.5736 0.8191
vn 1.0000 0.0000 -0.0000
vn -1.0000 0.0000 -0.0000
# 16 vertex normals

g cylinder02
usemtl ac3dmat2
s 1
f 155//69 156//69 157//70 158//70 
f 159//71 160//71 156//69 155//69 
f 161//72 162//72 160//71 159//71 
f 163//73 162//72 161//72 164//73 
f 165//74 163//73 164//73 166//74 
f 167//75 165//74 166//74 168//75 
f 167//75 168//75 169//76 170//76 
f 170//76 169//76 171//77 172//77 
f 172//77 171//77 173//78 174//78 
f 175//79 174//78 173//78 176//79 
f 177//80 175//79 176//79 178//80 
f 157//81 177//80 178//80 158//82 
f 179//83 159//83 155//83 158//83 
f 179//83 164//83 161//83 159//83 
f 179//83 168//83 166//83 164//83 
f 179//83 171//83 169//83 168//83 
f 179//83 176//83 173//83 171//83 
f 179//83 158//83 178//83 176//83 
f 180//84 177//84 157//81 156//84 
f 180//84 156//84 160//84 162//84 
f 180//84 162//84 163//84 165//84 
f 180//84 165//84 167//84 170//84 
f 180//84 170//84 172//84 174//84 
f 180//84 174//84 175//84 177//84 
# 24 polygons

#
# object cylinder03
#

v  -0.0571 0.1622 -0.3362
v  -0.1032 0.1622 -0.3362
v  -0.1032 0.1601 -0.3316
v  -0.0571 0.1601 -0.3316
v  -0.0571 0.1618 -0.3412
v  -0.1032 0.1618 -0.3412
v  -0.0571 0.1589 -0.3454
v  -0.1032 0.1589 -0.3454
v  -0.1032 0.1543 -0.3475
v  -0.0571 0.1543 -0.3475
v  -0.1032 0.1492 -0.3471
v  -0.0571 0.1492 -0.3471
v  -0.1032 0.1451 -0.3442
v  -0.0571 0.1451 -0.3442
v  -0.0571 0.1429 -0.3396
v  -0.1032 0.1429 -0.3396
v  -0.0571 0.1434 -0.3345
v  -0.1032 0.1434 -0.3345
v  -0.0571 0.1463 -0.3304
v  -0.1032 0.1463 -0.3304
v  -0.1032 0.1509 -0.3282
v  -0.0571 0.1509 -0.3282
v  -0.1032 0.1559 -0.3287
v  -0.0571 0.1559 -0.3287
v  -0.0571 0.1526 -0.3379
v  -0.1032 0.1526 -0.3379
# 26 vertices

vn 0.0000 0.9848 0.1737
vn 0.0000 0.9063 0.4227
vn 0.0000 0.9397 -0.3420
vn 0.0000 0.6428 -0.7661
vn 0.0000 0.1736 -0.9848
vn 0.0000 -0.3420 -0.9397
vn 0.0000 -0.7661 -0.6428
vn 0.0000 -0.9848 -0.1737
vn 0.0000 -0.9397 0.3420
vn 0.0000 -0.6428 0.7660
vn 0.0000 -0.1737 0.9848
vn 0.0000 0.3420 0.9397
vn -0.8575 0.2951 0.4214
vn 0.0000 0.5736 0.8192
vn 1.0000 0.0000 -0.0000
vn -1.0000 0.0000 -0.0000
# 16 vertex normals

g cylinder03
usemtl ac3dmat2
s 1
f 181//85 182//85 183//86 184//86 
f 185//87 186//87 182//85 181//85 
f 187//88 188//88 186//87 185//87 
f 189//89 188//88 187//88 190//89 
f 191//90 189//89 190//89 192//90 
f 193//91 191//90 192//90 194//91 
f 193//91 194//91 195//92 196//92 
f 196//92 195//92 197//93 198//93 
f 198//93 197//93 199//94 200//94 
f 201//95 200//94 199//94 202//95 
f 203//96 201//95 202//95 204//96 
f 183//97 203//96 204//96 184//98 
f 205//99 185//99 181//99 184//99 
f 205//99 190//99 187//99 185//99 
f 205//99 194//99 192//99 190//99 
f 205//99 197//99 195//99 194//99 
f 205//99 202//99 199//99 197//99 
f 205//99 184//99 204//99 202//99 
f 206//100 203//100 183//97 182//100 
f 206//100 182//100 186//100 188//100 
f 206//100 188//100 189//100 191//100 
f 206//100 191//100 193//100 196//100 
f 206//100 196//100 198//100 200//100 
f 206//100 200//100 201//100 203//100 
# 24 polygons

#
# object cylinder04
#

v  0.1758 0.1517 -0.3376
v  0.1758 0.1500 -0.3279
v  0.1758 0.1551 -0.3284
v  0.1758 0.1592 -0.3313
v  0.1758 0.1425 -0.3342
v  0.1758 0.1454 -0.3301
v  0.1758 0.1442 -0.3439
v  0.1758 0.1421 -0.3393
v  0.1758 0.1534 -0.3472
v  0.1758 0.1484 -0.3468
v  0.1758 0.1609 -0.3409
v  0.1758 0.1580 -0.3451
v  0.1758 0.1614 -0.3359
v  0.2219 0.1517 -0.3376
v  0.2219 0.1614 -0.3359
v  0.2219 0.1592 -0.3313
v  0.2219 0.1551 -0.3284
v  0.2219 0.1500 -0.3279
v  0.2219 0.1454 -0.3301
v  0.2219 0.1425 -0.3342
v  0.2219 0.1421 -0.3393
v  0.2219 0.1442 -0.3439
v  0.2219 0.1484 -0.3468
v  0.2219 0.1534 -0.3472
v  0.2219 0.1580 -0.3451
v  0.2219 0.1609 -0.3409
# 26 vertices

vn -1.0000 0.0000 -0.0000
vn -0.8575 0.2951 0.4214
vn 1.0000 0.0000 -0.0000
vn 0.0000 0.3420 0.9397
vn 0.0000 0.5736 0.8191
vn 0.0000 -0.1737 0.9848
vn 0.0000 -0.6428 0.7661
vn 0.0000 -0.9397 0.3420
vn 0.0000 -0.9848 -0.1737
vn 0.0000 -0.7660 -0.6428
vn 0.0000 -0.3420 -0.9397
vn 0.0000 0.1736 -0.9848
vn 0.0000 0.6428 -0.7661
vn 0.0000 0.9397 -0.3421
vn 0.0000 0.9848 0.1736
vn 0.0000 0.9063 0.4227
# 16 vertex normals

g cylinder04
usemtl ac3dmat2
s 1
f 207//101 208//101 209//101 210//102 
f 207//101 211//101 212//101 208//101 
f 207//101 213//101 214//101 211//101 
f 207//101 215//101 216//101 213//101 
f 207//101 217//101 218//101 215//101 
f 207//101 210//102 219//101 217//101 
f 220//103 221//103 222//103 223//103 
f 220//103 223//103 224//103 225//103 
f 220//103 225//103 226//103 227//103 
f 220//103 227//103 228//103 229//103 
f 220//103 229//103 230//103 231//103 
f 220//103 231//103 232//103 221//103 
f 210//102 209//104 223//104 222//105 
f 209//104 208//106 224//106 223//104 
f 208//106 212//107 225//107 224//106 
f 211//108 226//108 225//107 212//107 
f 214//109 227//109 226//108 211//108 
f 213//110 228//110 227//109 214//109 
f 213//110 216//111 229//111 228//110 
f 216//111 215//112 230//112 229//111 
f 215//112 218//113 231//113 230//112 
f 231//113 218//113 217//114 232//114 
f 232//114 217//114 219//115 221//115 
f 221//115 219//115 210//116 222//116 
# 24 polygons

#
# object cylinder05
#

v  0.2192 -0.2212 -0.2370
v  0.1730 -0.2212 -0.2370
v  0.1730 -0.2233 -0.2324
v  0.2192 -0.2233 -0.2324
v  0.2192 -0.2216 -0.2420
v  0.1730 -0.2216 -0.2420
v  0.2192 -0.2246 -0.2462
v  0.1730 -0.2246 -0.2462
v  0.1730 -0.2291 -0.2483
v  0.2192 -0.2291 -0.2483
v  0.1730 -0.2342 -0.2479
v  0.2192 -0.2342 -0.2479
v  0.1730 -0.2383 -0.2450
v  0.2192 -0.2383 -0.2450
v  0.2192 -0.2405 -0.2404
v  0.1730 -0.2405 -0.2404
v  0.2192 -0.2400 -0.2353
v  0.1730 -0.2400 -0.2353
v  0.2192 -0.2371 -0.2312
v  0.1730 -0.2371 -0.2312
v  0.1730 -0.2325 -0.2290
v  0.2192 -0.2325 -0.2290
v  0.1730 -0.2275 -0.2295
v  0.2192 -0.2275 -0.2295
v  0.2192 -0.2308 -0.2387
v  0.1730 -0.2308 -0.2387
# 26 vertices

vn 0.0000 0.9848 0.1736
vn 0.0000 0.9063 0.4226
vn 0.0000 0.9397 -0.3420
vn 0.0000 0.6428 -0.7660
vn 0.0000 0.1736 -0.9848
vn 0.0000 -0.3420 -0.9397
vn 0.0000 -0.7660 -0.6428
vn 0.0000 -0.9848 -0.1736
vn 0.0000 -0.9397 0.3420
vn 0.0000 -0.6428 0.7661
vn 0.0000 -0.1737 0.9848
vn 0.0000 0.3420 0.9397
vn -0.8575 0.2951 0.4214
vn 0.0000 0.5736 0.8191
vn 1.0000 0.0000 -0.0000
vn -1.0000 0.0000 -0.0000
# 16 vertex normals

g cylinder05
usemtl ac3dmat2
s 1
f 233//117 234//117 235//118 236//118 
f 237//119 238//119 234//117 233//117 
f 239//120 240//120 238//119 237//119 
f 241//121 240//120 239//120 242//121 
f 243//122 241//121 242//121 244//122 
f 245//123 243//122 244//122 246//123 
f 245//123 246//123 247//124 248//124 
f 248//124 247//124 249//125 250//125 
f 250//125 249//125 251//126 252//126 
f 253//127 252//126 251//126 254//127 
f 255//128 253//127 254//127 256//128 
f 235//129 255//128 256//128 236//130 
f 257//131 237//131 233//131 236//131 
f 257//131 242//131 239//131 237//131 
f 257//131 246//131 244//131 242//131 
f 257//131 249//131 247//131 246//131 
f 257//131 254//131 251//131 249//131 
f 257//131 236//131 256//131 254//131 
f 258//132 255//132 235//129 234//132 
f 258//132 234//132 238//132 240//132 
f 258//132 240//132 241//132 243//132 
f 258//132 243//132 245//132 248//132 
f 258//132 248//132 250//132 252//132 
f 258//132 252//132 253//132 255//132 
# 24 polygons

#
# object cylinder06
#

v  0.1730 0.5171 -0.5123
v  0.1730 0.5154 -0.5027
v  0.1730 0.5204 -0.5031
v  0.1730 0.5246 -0.5060
v  0.1730 0.5079 -0.5089
v  0.1730 0.5108 -0.5048
v  0.1730 0.5096 -0.5186
v  0.1730 0.5075 -0.5140
v  0.1730 0.5188 -0.5219
v  0.1730 0.5137 -0.5215
v  0.1730 0.5263 -0.5156
v  0.1730 0.5234 -0.5198
v  0.1730 0.5267 -0.5106
v  0.2192 0.5171 -0.5123
v  0.2192 0.5267 -0.5106
v  0.2192 0.5246 -0.5060
v  0.2192 0.5204 -0.5031
v  0.2192 0.5154 -0.5027
v  0.2192 0.5108 -0.5048
v  0.2192 0.5079 -0.5089
v  0.2192 0.5075 -0.5140
v  0.2192 0.5096 -0.5186
v  0.2192 0.5137 -0.5215
v  0.2192 0.5188 -0.5219
v  0.2192 0.5234 -0.5198
v  0.2192 0.5263 -0.5156
# 26 vertices

vn -1.0000 0.0000 -0.0000
vn -0.8575 0.2951 0.4214
vn 1.0000 0.0000 -0.0000
vn 0.0000 0.3420 0.9397
vn 0.0000 0.5736 0.8191
vn 0.0000 -0.1737 0.9848
vn 0.0000 -0.6428 0.7660
vn 0.0000 -0.9397 0.3420
vn 0.0000 -0.9848 -0.1736
vn 0.0000 -0.7660 -0.6428
vn 0.0000 -0.3420 -0.9397
vn 0.0000 0.1736 -0.9848
vn 0.0000 0.6428 -0.7660
vn 0.0000 0.9397 -0.3421
vn 0.0000 0.9848 0.1736
vn 0.0000 0.9063 0.4227
# 16 vertex normals

g cylinder06
usemtl ac3dmat2
s 1
f 259//133 260//133 261//133 262//134 
f 259//133 263//133 264//133 260//133 
f 259//133 265//133 266//133 263//133 
f 259//133 267//133 268//133 265//133 
f 259//133 269//133 270//133 267//133 
f 259//133 262//134 271//133 269//133 
f 272//135 273//135 274//135 275//135 
f 272//135 275//135 276//135 277//135 
f 272//135 277//135 278//135 279//135 
f 272//135 279//135 280//135 281//135 
f 272//135 281//135 282//135 283//135 
f 272//135 283//135 284//135 273//135 
f 262//134 261//136 275//136 274//137 
f 261//136 260//138 276//138 275//136 
f 260//138 264//139 277//139 276//138 
f 263//140 278//140 277//139 264//139 
f 266//141 279//141 278//140 263//140 
f 265//142 280//142 279//141 266//141 
f 265//142 268//143 281//143 280//142 
f 268//143 267//144 282//144 281//143 
f 267//144 270//145 283//145 282//144 
f 283//145 270//145 269//146 284//146 
f 284//146 269//146 271//147 273//147 
f 273//147 271//147 262//148 274//148 
# 24 polygons

